<?xml version="1.0" standalone="no"?>
<!DOCTYPE svg PUBLIC "-//W3C//DTD SVG 20010904//EN"
 "http://www.w3.org/TR/2001/REC-SVG-20010904/DTD/svg10.dtd">
<svg version="1.0" xmlns="http://www.w3.org/2000/svg"
 width="965.000000pt" height="1280.000000pt" viewBox="0 0 965.000000 1280.000000"
 preserveAspectRatio="xMidYMid meet">
<metadata>
Created by potrace 1.15, written by Peter Selinger 2001-2017
</metadata>
<g transform="translate(0.000000,1280.000000) scale(0.100000,-0.100000)"
fill="#f44336" stroke="none">
<path d="M4923 12790 c-105 -22 -182 -76 -244 -173 -48 -74 -95 -203 -108
-299 -15 -108 -84 -296 -133 -361 -13 -18 -20 -14 -104 65 -50 45 -148 145
-220 221 -211 226 -250 248 -398 229 -106 -13 -206 -45 -308 -99 -105 -54
-230 -181 -286 -290 -42 -81 -82 -210 -82 -263 0 -44 146 -380 212 -490 54
-87 58 -134 25 -271 -33 -134 -99 -333 -143 -425 -37 -77 -58 -94 -125 -94
-58 0 -94 22 -184 114 -90 92 -161 134 -275 165 -299 81 -594 65 -815 -46
-101 -51 -145 -84 -260 -193 -56 -53 -123 -107 -149 -120 -33 -15 -92 -28
-189 -41 -370 -49 -778 -150 -862 -213 -100 -77 -175 -274 -175 -464 0 -158
56 -397 125 -539 58 -118 115 -177 193 -199 80 -23 452 -15 642 15 74 12 212
32 305 46 94 13 188 27 209 30 l39 6 -7 -326 c-6 -304 -19 -526 -32 -567 -16
-51 -248 4 -661 156 -198 72 -303 94 -390 79 -177 -31 -278 -149 -413 -488
-94 -236 -112 -337 -85 -479 36 -192 68 -224 311 -304 100 -34 273 -80 349
-94 11 -2 -7 -7 -40 -12 -250 -30 -467 -100 -539 -172 -63 -65 -94 -160 -102
-319 -13 -230 54 -481 159 -601 77 -88 115 -91 388 -24 92 22 201 43 243 46
67 6 76 5 76 -10 0 -9 -18 -79 -40 -154 -108 -375 -125 -501 -124 -977 0 -377
8 -506 40 -681 63 -344 256 -791 499 -1159 74 -111 168 -233 315 -405 44 -52
101 -127 126 -167 68 -109 72 -154 84 -958 10 -686 16 -807 49 -900 56 -159
219 -305 474 -425 287 -134 484 -175 730 -152 152 14 258 41 366 94 241 115
306 317 285 881 -5 131 -8 240 -6 242 1 1 37 -6 80 -15 411 -93 549 -126 617
-147 44 -13 122 -30 173 -39 113 -18 229 -57 482 -162 249 -103 324 -131 550
-202 324 -103 433 -125 885 -180 137 -17 324 -42 415 -56 91 -14 192 -30 225
-35 254 -38 651 -11 954 66 360 91 596 228 871 504 190 191 308 365 345 510
53 208 41 1514 -20 2111 -29 278 -95 847 -105 900 -18 96 -87 349 -145 535
-77 245 -118 428 -195 867 -45 259 -70 413 -70 431 0 22 -8 23 510 -12 304
-20 278 -31 333 135 62 188 71 240 71 434 0 261 -26 347 -121 408 -90 57 -163
72 -761 160 -139 20 -253 41 -254 47 -2 12 147 125 482 367 l255 184 3 99 c8
261 -43 439 -188 655 -115 170 -165 209 -280 218 -121 8 -271 -58 -553 -244
-87 -58 -249 -174 -360 -258 -250 -188 -338 -249 -348 -239 -26 28 -93 338
-105 485 l-7 86 114 37 c149 47 563 150 664 165 207 30 284 59 353 134 61 67
68 122 53 482 -15 388 -37 527 -96 616 -74 112 -321 195 -679 229 -159 15
-489 6 -596 -16 -49 -10 -76 -11 -78 -5 -2 6 -26 57 -54 113 -212 433 -268
580 -268 703 0 89 6 101 120 299 183 317 250 571 184 703 -30 61 -154 180
-258 250 -109 72 -179 94 -323 100 -114 4 -124 3 -178 -22 -31 -14 -79 -44
-105 -66 -88 -74 -370 -395 -452 -515 l-40 -60 5 75 c3 41 13 104 23 140 10
37 18 102 18 150 1 73 -3 93 -27 141 -64 131 -210 211 -504 275 -127 28 -291
39 -360 24z m315 -101 c279 -59 427 -132 473 -234 25 -54 24 -143 -2 -252 -28
-115 -31 -290 -6 -346 14 -33 21 -38 44 -35 29 3 40 17 101 125 42 75 157 218
312 389 177 195 235 234 350 234 172 0 296 -60 469 -224 74 -71 95 -120 86
-205 -14 -134 -94 -330 -228 -558 -41 -70 -82 -152 -91 -182 -43 -146 0 -295
210 -728 57 -119 102 -218 100 -220 -2 -2 -95 -28 -207 -57 -112 -30 -307 -81
-433 -115 -126 -33 -250 -63 -275 -67 l-46 -5 -80 103 c-103 133 -285 314
-357 357 -264 155 -548 126 -781 -80 -113 -99 -257 -346 -326 -558 -112 -345
-104 -716 26 -1164 64 -221 66 -184 -13 -300 -272 -402 -554 -757 -603 -757
-19 0 -129 99 -217 197 -237 260 -495 617 -603 833 -43 86 -49 107 -62 210
-19 152 -19 796 -1 965 28 261 68 441 127 567 67 146 152 416 174 557 14 84 2
136 -53 231 -36 61 -166 342 -166 356 0 2 13 4 29 4 45 0 165 46 267 102 219
120 417 311 455 439 7 21 15 39 19 39 4 0 27 -21 50 -47 93 -104 328 -338 376
-374 60 -46 82 -48 122 -14 61 51 160 293 180 440 12 84 62 218 102 273 35 49
84 87 136 106 60 22 226 20 342 -5z m-1410 -311 c39 -39 -13 -147 -126 -258
-163 -161 -426 -309 -549 -310 -28 0 -30 31 -7 111 63 214 240 382 469 445 89
25 194 31 213 12z m-1496 -1603 c133 -17 240 -45 311 -82 57 -28 197 -167 197
-194 0 -9 29 -286 65 -615 35 -330 71 -670 79 -757 9 -87 21 -177 27 -200 38
-141 272 -502 527 -812 182 -222 365 -395 416 -395 92 0 279 218 653 760 l121
176 -49 163 c-27 90 -64 232 -82 315 -30 144 -31 161 -32 381 0 188 3 245 19
315 27 125 71 252 126 367 l48 102 61 -20 c275 -85 574 -137 916 -160 279 -18
393 -4 745 91 227 61 574 150 695 178 366 85 1012 21 1205 -119 75 -55 102
-155 120 -446 11 -188 13 -494 4 -542 -15 -72 -106 -123 -267 -146 -183 -28
-642 -142 -912 -227 -151 -48 -352 -147 -475 -233 -109 -76 -275 -237 -355
-344 -163 -216 -263 -462 -305 -749 -46 -315 -291 -1167 -451 -1566 -83 -206
-258 -558 -373 -751 -53 -88 -96 -164 -96 -170 0 -6 16 -30 35 -53 68 -79 204
-120 362 -109 l84 6 -20 -28 c-30 -42 -61 -59 -153 -82 -118 -31 -221 -87
-311 -170 -66 -61 -79 -78 -93 -126 -68 -233 208 -941 761 -1953 197 -359 265
-466 375 -584 172 -183 330 -262 850 -422 161 -50 198 -58 286 -62 161 -7 284
35 421 142 199 157 386 489 469 834 l26 107 -5 705 c-4 388 -11 746 -16 796
-22 202 -77 396 -156 554 -123 245 -234 310 -449 265 -116 -24 -220 -83 -337
-190 -57 -52 -110 -95 -118 -95 -10 0 -12 14 -9 64 5 76 37 134 140 256 85 99
179 177 272 226 90 47 178 130 205 193 116 270 46 1136 -133 1636 -145 406
-454 605 -936 605 -111 0 -224 -12 -408 -41 -73 -12 -135 -19 -138 -17 -2 3 3
45 11 94 20 112 81 297 133 401 47 93 144 240 199 302 l39 44 109 -16 c584
-91 988 -296 1390 -708 203 -208 247 -272 303 -449 60 -188 101 -399 212
-1090 76 -473 158 -861 235 -1110 124 -403 155 -533 179 -765 9 -82 30 -265
46 -405 65 -556 75 -764 75 -1590 0 -768 1 -753 -73 -894 -130 -248 -453 -556
-729 -694 -158 -80 -402 -152 -643 -189 -88 -14 -175 -18 -370 -18 -232 0
-269 2 -415 27 -88 15 -250 39 -360 53 -598 76 -702 95 -984 185 -257 81 -348
114 -604 221 -216 90 -379 145 -457 154 -30 4 -120 24 -200 46 -80 21 -277 68
-438 104 -310 69 -307 68 -562 177 -367 156 -715 341 -970 516 -266 183 -589
466 -683 599 -30 43 -102 132 -159 198 -272 315 -501 714 -638 1111 -107 311
-130 485 -130 1002 0 337 7 446 41 622 43 226 77 333 244 760 309 793 436
1202 549 1778 53 270 65 419 67 887 2 322 -5 420 -51 717 -27 177 -91 491
-138 677 l-38 152 81 77 c120 118 222 179 360 221 138 40 260 48 427 26z
m3169 -124 c130 -50 235 -137 392 -326 l100 -120 -99 -3 c-196 -7 -525 31
-778 88 -137 30 -293 74 -303 84 -11 10 82 119 147 173 122 101 221 135 380
129 77 -2 120 -9 161 -25z m-2441 -207 c0 -6 -9 -53 -20 -105 -11 -52 -27
-161 -37 -243 -9 -82 -18 -145 -20 -140 -3 11 -53 471 -53 489 0 9 19 12 65
11 40 -1 65 -5 65 -12z m-1632 -195 c79 -323 155 -759 168 -966 l7 -100 -94
-12 c-52 -6 -195 -27 -319 -46 -124 -19 -279 -39 -345 -44 -120 -11 -335 -15
-335 -7 0 3 5 17 10 31 21 56 30 254 20 432 -15 271 -46 454 -106 634 -4 11 2
18 18 22 13 2 86 21 163 40 178 45 364 81 534 102 74 9 155 25 180 35 25 10
50 17 56 16 5 -2 24 -63 43 -137z m-1059 -154 c54 -143 86 -402 86 -695 0
-219 -10 -310 -35 -310 -23 0 -86 80 -121 154 -70 147 -127 418 -114 546 8 88
41 206 71 257 29 49 72 103 84 103 5 0 18 -25 29 -55z m8361 -1232 c0 -202
204 -668 346 -792 l33 -29 -192 -138 c-106 -76 -265 -193 -354 -260 l-162
-122 -27 36 c-52 69 -279 294 -379 376 -127 104 -181 143 -299 215 l-96 58 43
28 c23 16 130 94 237 175 403 302 612 436 765 491 82 29 85 28 85 -38z m171 0
c89 -96 204 -302 234 -418 17 -65 41 -323 31 -333 -10 -9 -65 49 -112 120
-128 192 -262 566 -238 663 6 23 8 24 33 11 14 -8 38 -27 52 -43z m-1568 -135
c6 -76 33 -230 73 -410 l6 -26 -93 35 c-112 42 -362 106 -482 124 -48 7 -90
16 -93 20 -12 20 215 183 346 249 63 33 219 99 231 100 3 0 9 -42 12 -92z
m-6773 -387 c5 -11 10 -55 10 -98 0 -205 -92 -549 -210 -788 -80 -162 -121
-186 -195 -112 -62 62 -83 247 -45 386 60 216 177 456 266 547 75 78 152 106
174 65z m351 -67 c276 -100 538 -174 618 -174 27 0 27 -1 -10 -177 -79 -382
-166 -682 -331 -1143 -66 -184 -263 -699 -271 -706 -1 -1 -22 1 -47 6 -56 10
-183 -8 -348 -50 -161 -40 -154 -41 -130 23 28 73 35 234 15 352 -21 119 -67
258 -126 377 l-47 97 70 26 c39 13 98 32 131 40 55 14 99 20 314 45 81 9 124
32 129 69 8 50 -39 74 -213 111 -122 26 -245 59 -302 81 l-23 9 34 47 c145
204 304 766 281 990 l-6 61 54 -14 c30 -8 124 -39 208 -70z m6224 -783 c253
-68 427 -225 531 -482 37 -91 108 -377 138 -559 70 -414 75 -884 11 -1037 -24
-57 -91 -119 -175 -164 -95 -50 -201 -137 -285 -236 -138 -162 -181 -249 -171
-353 7 -82 29 -114 80 -118 47 -4 79 17 197 125 139 127 257 178 398 171 60
-2 82 -8 107 -26 101 -76 214 -313 265 -557 11 -53 24 -162 29 -243 15 -229
24 -1239 12 -1372 -22 -245 -153 -564 -322 -782 -151 -194 -360 -293 -553
-260 -73 13 -394 110 -552 167 -259 94 -417 203 -554 385 -105 140 -360 599
-581 1045 -309 626 -460 1037 -460 1255 0 71 0 71 47 121 48 51 155 127 208
147 17 6 65 21 109 32 98 26 152 62 202 137 21 32 42 60 47 61 13 6 7 42 -7
42 -8 0 -21 8 -28 18 -11 15 -33 17 -178 17 -156 0 -168 1 -214 25 -28 14 -54
32 -59 40 -6 11 13 51 69 145 153 257 336 640 429 898 15 42 29 76 30 75 2 -2
29 -102 60 -223 99 -380 187 -622 297 -818 28 -49 48 -90 47 -91 -2 -2 -78
-15 -169 -30 -90 -15 -166 -29 -168 -31 -15 -15 219 -247 298 -297 92 -58 114
-63 236 -60 106 2 114 1 167 -27 31 -16 98 -61 149 -98 200 -148 277 -192 335
-193 43 0 77 42 69 85 -11 54 -65 148 -153 265 -203 269 -280 386 -487 739
-156 266 -200 349 -256 491 -106 267 -160 546 -185 961 -7 106 -6 107 50 325
31 120 58 226 61 235 3 12 36 22 132 38 213 37 250 40 462 36 171 -2 218 -6
285 -24z m1745 -156 c431 -63 483 -73 475 -94 -67 -174 -62 -662 10 -843 9
-22 3 -23 -260 -3 -110 8 -243 15 -297 15 l-96 0 -7 43 c-66 415 -142 750
-211 921 -7 18 -4 19 37 12 24 -4 181 -27 349 -51z m640 -170 c28 -46 40 -134
40 -291 0 -160 -14 -252 -61 -393 l-32 -94 -18 35 c-39 76 -54 191 -54 418 0
206 9 290 37 362 10 28 10 28 40 10 16 -9 38 -30 48 -47z m-9310 -427 c115
-246 153 -490 102 -654 -29 -96 -41 -104 -81 -59 -60 68 -106 182 -131 323
-15 83 -14 286 1 348 15 60 46 124 60 124 6 0 28 -37 49 -82z m5874 -153 c30
-260 83 -480 163 -685 63 -161 104 -238 276 -530 186 -316 280 -460 433 -665
118 -158 174 -243 174 -264 0 -7 -15 -4 -37 8 -35 18 -70 42 -278 193 -117 85
-164 100 -310 102 l-121 1 -64 42 c-61 39 -204 173 -186 173 12 0 321 52 323
55 2 1 -25 44 -60 96 -107 159 -193 355 -271 611 -41 136 -166 614 -166 636 0
16 103 362 107 359 1 -2 9 -61 17 -132z m-3964 -4535 c326 -260 723 -486 1238
-705 l217 -93 8 -123 c4 -68 6 -234 4 -369 -4 -204 -8 -257 -24 -316 -51 -183
-140 -262 -362 -322 -88 -24 -113 -26 -291 -26 -219 -1 -252 5 -452 84 -267
107 -451 235 -531 372 -54 91 -57 124 -73 918 -8 404 -17 757 -20 784 l-6 50
88 -82 c49 -44 141 -122 204 -172z"/>
<path d="M5040 7863 c-244 -41 -498 -189 -720 -419 -170 -176 -210 -252 -250
-474 -27 -147 19 -298 132 -443 50 -63 179 -117 280 -117 26 0 59 -5 73 -12
23 -10 26 -16 21 -42 -4 -16 -13 -40 -21 -53 -30 -44 -59 -55 -182 -62 -215
-14 -242 -45 -342 -398 -57 -197 -95 -302 -153 -420 -81 -168 -158 -263 -293
-366 -134 -102 -270 -223 -372 -334 -54 -58 -99 -100 -101 -93 -8 22 20 106
65 198 61 125 201 333 313 467 221 262 323 487 387 850 25 144 24 501 -1 640
-63 347 -201 611 -410 787 -83 70 -154 98 -261 105 -221 14 -566 -111 -876
-319 -140 -93 -193 -136 -405 -329 -314 -287 -466 -485 -589 -775 -116 -270
-168 -559 -169 -929 -1 -215 0 -221 24 -270 43 -86 174 -165 274 -165 24 0
116 13 204 29 219 40 382 55 532 47 219 -11 292 -39 418 -166 64 -64 118 -151
108 -176 -7 -19 -54 -9 -146 31 -143 63 -178 70 -365 70 -159 0 -175 -2 -243
-27 -114 -41 -186 -109 -215 -202 -16 -54 -15 -438 2 -566 62 -464 200 -815
450 -1145 62 -82 221 -245 306 -315 171 -139 457 -307 774 -454 644 -299 1214
-445 1594 -406 381 38 597 175 662 421 19 71 19 246 -1 349 -41 220 -109 393
-319 810 -306 612 -380 859 -379 1270 1 298 42 536 180 1044 41 154 73 287 71
296 -2 8 -52 87 -112 175 -107 157 -167 269 -180 333 -5 23 -3 32 7 32 20 0
105 -43 188 -94 199 -124 281 -116 441 43 183 182 359 522 404 779 27 153 15
226 -61 372 -134 260 -396 433 -649 428 -38 0 -81 -3 -95 -5z m261 -103 c120
-41 247 -130 324 -228 25 -31 67 -99 93 -151 43 -86 47 -102 51 -177 10 -239
-169 -636 -383 -850 -92 -91 -140 -119 -189 -108 -39 8 -109 42 -183 90 -137
88 -223 106 -271 58 -23 -23 -25 -32 -21 -83 6 -80 57 -183 185 -373 l106
-157 -51 -188 c-152 -561 -190 -767 -199 -1078 -6 -235 8 -370 61 -578 54
-209 126 -385 312 -757 95 -190 193 -397 218 -460 224 -570 150 -869 -244
-983 -247 -71 -547 -61 -912 33 -497 127 -1164 429 -1543 698 -97 70 -276 240
-358 342 -309 383 -467 871 -467 1440 0 205 7 245 51 295 81 92 298 129 505
86 49 -10 110 -29 134 -41 68 -35 149 -60 192 -60 57 0 98 43 98 100 0 109
-190 325 -331 375 -174 63 -502 61 -839 -4 -58 -12 -135 -21 -171 -21 -60 0
-71 4 -128 40 -90 58 -94 73 -93 297 4 615 153 1036 508 1431 85 94 377 360
496 453 219 169 503 312 731 369 70 17 111 21 195 18 128 -4 167 -19 260 -104
343 -310 470 -944 308 -1536 -61 -223 -153 -400 -287 -558 -164 -192 -324
-435 -390 -592 -24 -55 -33 -93 -36 -153 -5 -98 8 -129 55 -133 31 -3 44 8
200 165 156 159 245 237 369 326 111 81 236 244 313 410 51 111 90 224 151
435 58 202 86 265 129 287 19 10 76 19 148 24 72 5 129 14 147 24 92 47 141
168 100 247 -18 35 -69 54 -183 69 -122 15 -166 41 -227 131 -28 41 -59 101
-69 133 -25 79 -18 201 18 326 33 114 84 187 233 332 186 182 360 287 558 340
100 26 247 25 326 -1z"/>
</g>
</svg>
