<?xml version="1.0" standalone="no"?>
<!DOCTYPE svg PUBLIC "-//W3C//DTD SVG 20010904//EN"
 "http://www.w3.org/TR/2001/REC-SVG-20010904/DTD/svg10.dtd">
<svg version="1.0" xmlns="http://www.w3.org/2000/svg"
 width="1280.000000pt" height="986.000000pt" viewBox="0 0 1280.000000 986.000000"
 preserveAspectRatio="xMidYMid meet">
<metadata>
Created by potrace 1.15, written by Peter Selinger 2001-2017
</metadata>
<g transform="translate(0.000000,986.000000) scale(0.100000,-0.100000)"
fill="#ffc107" stroke="none">
<path d="M4110 9633 c0 -245 24 -617 61 -953 116 -1049 371 -1789 754 -2189
142 -148 241 -213 461 -300 389 -153 724 -235 1214 -296 237 -29 351 -50 393
-72 35 -18 35 -8 -12 -308 -94 -600 -151 -1225 -171 -1875 -7 -256 -11 -295
-34 -383 -68 -261 -224 -436 -461 -514 -69 -23 -97 -27 -210 -27 -186 -1 -224
12 -565 193 -257 137 -406 195 -609 238 -113 24 -147 27 -336 27 -170 0 -241
-4 -370 -23 -346 -51 -451 -6 -822 351 -86 83 -195 180 -242 215 -96 73 -255
154 -346 178 -100 26 -287 38 -471 31 -371 -13 -607 -85 -875 -264 -380 -255
-742 -732 -1114 -1467 -162 -321 -351 -743 -338 -756 16 -16 148 -67 155 -61
3 4 37 77 73 162 318 734 663 1325 972 1660 234 255 434 395 678 478 159 54
260 66 540 67 282 0 318 -6 460 -74 109 -52 210 -131 410 -322 196 -187 295
-264 409 -319 164 -79 288 -93 506 -60 180 28 435 37 565 21 198 -25 376 -86
617 -212 401 -209 463 -233 643 -245 213 -15 436 55 607 190 89 71 163 168
223 291 88 181 115 327 115 615 0 467 75 1277 177 1915 41 259 40 299 -7 364
-62 85 -156 115 -480 156 -543 67 -818 133 -1228 292 -176 68 -269 127 -387
247 -424 428 -691 1364 -765 2680 -6 98 -10 247 -10 332 l0 154 -90 0 -90 0 0
-137z"/>
<path d="M6126 9543 l-58 -4 6 -107 c44 -685 230 -1303 515 -1702 193 -270
377 -419 721 -580 105 -50 193 -90 196 -90 4 0 -1 11 -10 25 -56 85 -159 277
-172 320 -50 170 -38 395 35 645 49 171 179 449 277 595 255 381 716 619 1329
684 493 53 1141 -23 1670 -196 396 -129 839 -486 1190 -958 147 -198 329 -521
438 -775 333 -784 434 -1681 296 -2645 -76 -537 -246 -1128 -490 -1714 -93
-223 -230 -456 -447 -766 -693 -986 -1576 -1632 -2626 -1919 -272 -75 -496
-117 -816 -152 -221 -25 -824 -26 -1070 -1 -791 79 -1561 281 -2286 602 -329
146 -752 396 -877 519 -28 28 -84 99 -124 156 -39 58 -86 117 -105 131 -178
138 -496 208 -1038 229 -276 11 -376 26 -700 111 -85 22 -248 67 -362 100
-114 32 -210 59 -213 59 -4 0 49 -58 117 -130 197 -208 228 -286 236 -587 5
-220 -13 -415 -64 -659 l-6 -31 84 -20 c56 -13 85 -15 90 -8 10 16 57 307 68
420 13 134 12 376 -1 470 -5 42 -19 109 -29 148 -10 40 -17 73 -15 75 2 2 36
-6 77 -17 265 -72 434 -98 723 -110 351 -15 551 -42 730 -98 151 -48 188 -75
278 -207 87 -127 171 -208 322 -308 481 -319 1054 -572 1738 -767 659 -189
1256 -276 1892 -276 349 0 496 10 785 51 1513 215 2754 1089 3615 2544 37 63
73 122 80 130 27 34 190 431 278 681 409 1150 502 2280 271 3294 -152 665
-453 1285 -859 1770 -129 153 -368 384 -505 486 -278 209 -470 305 -770 387
-1065 292 -2046 217 -2654 -202 -137 -94 -313 -271 -398 -401 -65 -98 -157
-273 -216 -410 -114 -263 -173 -569 -152 -785 5 -52 7 -96 5 -98 -18 -18 -250
196 -345 319 -276 357 -461 912 -519 1559 -6 63 -11 139 -11 168 l0 52 -32 -2
c-18 -1 -59 -3 -92 -5z"/>
</g>
</svg>
