<svg id="Layer_3" enable-background="new 0 0 64 64" height="512" viewBox="0 0 64 64" width="512" xmlns="http://www.w3.org/2000/svg"><path d="m32 62v-7c0-7.18 5.82-13 13-13 1.657 0 3-1.343 3-3 0-1.96.808-3.729 2.106-5-1.298-1.271-2.106-3.04-2.106-5s.808-3.729 2.106-5c-1.298-1.271-2.106-3.04-2.106-5 0-.93.185-1.816.515-2.628-.172-.144-.337-.295-.494-.455-.334.049-.673.083-1.021.083-1.96 0-3.729-.808-5-2.106-1.271 1.298-3.04 2.106-5 2.106s-3.729-.808-5-2.106c-1.271 1.298-3.04 2.106-5 2.106s-3.729-.808-5-2.106c-1.271 1.298-3.04 2.106-5 2.106-.348 0-.687-.034-1.021-.083-.157.159-.322.311-.494.455.33.812.515 1.698.515 2.628 0 1.96-.808 3.729-2.106 5 1.298 1.271 2.106 3.04 2.106 5s-.808 3.729-2.106 5c1.298 1.271 2.106 3.04 2.106 5v3c3.866 0 7 3.134 7 7v.586c0 .781-.633 1.414-1.414 1.414-.375 0-.735-.149-1-.414l-.192-.192c-2.814-2.814-6.631-4.394-10.676-4.394h-.45c-3.737 0-7.017-2.814-7.254-6.544-.135-2.141.694-4.088 2.092-5.456-1.298-1.271-2.106-3.04-2.106-5s.808-3.729 2.106-5c-1.298-1.271-2.106-3.04-2.106-5 0-2.159.979-4.088 2.515-5.372-.33-.812-.515-1.698-.515-2.628 0-3.866 3.134-7 7-7 .348 0 .687.034 1.021.083 1.269-1.285 3.03-2.083 4.979-2.083 1.96 0 3.729.808 5 2.106 1.271-1.298 3.04-2.106 5-2.106s3.729.808 5 2.106c1.271-1.298 3.04-2.106 5-2.106s3.729.808 5 2.106c1.271-1.298 3.04-2.106 5-2.106 1.949 0 3.71.798 4.979 2.083.334-.049.673-.083 1.021-.083 3.866 0 7 3.134 7 7 0 .93-.185 1.816-.515 2.628 1.536 1.284 2.515 3.213 2.515 5.372 0 1.96-.808 3.729-2.106 5 1.298 1.271 2.106 3.04 2.106 5s-.808 3.729-2.106 5c1.398 1.369 2.227 3.316 2.091 5.456-.237 3.73-3.516 6.544-7.253 6.544h-8.732c-5.523 0-10 4.477-10 10v6" fill="#f4b2b0"/><path d="m60.649 13.337c.233-.758.351-1.542.351-2.337 0-4.411-3.589-8-8-8-.217 0-.438.011-.673.033-1.469-1.315-3.342-2.033-5.327-2.033-1.842 0-3.585.618-5 1.757-1.415-1.139-3.158-1.757-5-1.757s-3.585.618-5 1.757c-1.415-1.139-3.158-1.757-5-1.757s-3.585.618-5 1.757c-1.415-1.139-3.158-1.757-5-1.757-1.985 0-3.858.718-5.326 2.033-.237-.022-.457-.033-.674-.033-4.411 0-8 3.589-8 8 0 .795.118 1.579.351 2.337-1.502 1.497-2.351 3.524-2.351 5.663 0 1.842.618 3.585 1.757 5-1.139 1.415-1.757 3.158-1.757 5 0 1.843.618 3.586 1.758 5.001-1.241 1.548-1.869 3.512-1.741 5.519.266 4.194 3.891 7.48 8.252 7.48h.449c3.785 0 7.325 1.456 9.969 4.101l.193.193c.449.448 1.071.706 1.706.706 1.331 0 2.414-1.083 2.414-2.414v-.586c0-4.072-3.059-7.444-7-7.938v-2.062c0-1.842-.618-3.586-1.757-5 1.139-1.415 1.757-3.158 1.757-5s-.618-3.585-1.757-5c1.139-1.415 1.757-3.158 1.757-5 0-.68-.086-1.351-.256-2.005 1.951.072 3.776-.561 5.256-1.752 1.415 1.139 3.158 1.757 5 1.757s3.585-.618 5-1.757c1.415 1.139 3.158 1.757 5 1.757s3.585-.618 5-1.757c1.48 1.191 3.296 1.832 5.256 1.752-.17.654-.256 1.325-.256 2.005 0 1.842.618 3.585 1.757 5-1.139 1.415-1.757 3.158-1.757 5s.618 3.585 1.757 5c-1.139 1.414-1.757 3.158-1.757 5 0 1.103-.897 2-2 2-7.72 0-14 6.28-14 14v8h2v-8c0-6.617 5.383-12 12-12 2.206 0 4-1.794 4-4 0-1.624.641-3.146 1.805-4.285.192-.188.3-.446.3-.715s-.108-.526-.3-.715c-1.164-1.139-1.805-2.661-1.805-4.285s.641-3.146 1.805-4.286c.192-.188.3-.445.3-.714s-.108-.526-.3-.714c-1.164-1.14-1.805-2.662-1.805-4.286 0-.772.148-1.53.441-2.252.163-.402.048-.863-.285-1.142-.147-.124-.289-.254-.424-.391-.223-.227-.539-.333-.856-.287-.336.049-.615.072-.876.072-1.624 0-3.146-.641-4.286-1.805-.376-.384-1.053-.384-1.429 0-1.139 1.164-2.661 1.805-4.285 1.805s-3.146-.641-4.286-1.805c-.376-.384-1.053-.384-1.429 0-1.139 1.164-2.661 1.805-4.285 1.805s-3.146-.641-4.286-1.805c-.376-.384-1.053-.384-1.429 0-1.139 1.164-2.661 1.805-4.285 1.805-.261 0-.54-.023-.876-.072-.316-.047-.633.06-.856.287-.135.136-.276.267-.423.39-.333.279-.449.741-.286 1.143.293.722.441 1.48.441 2.252 0 1.624-.641 3.146-1.805 4.286-.192.188-.3.445-.3.714s.108.526.3.714c1.164 1.14 1.805 2.662 1.805 4.286s-.641 3.146-1.805 4.285c-.192.188-.3.446-.3.715s.108.526.3.715c1.164 1.139 1.805 2.661 1.805 4.285v3c0 .553.448 1 1 1 3.309 0 6 2.691 6 6v.586c0 .338-.468.532-.707.293l-.192-.192c-3.022-3.023-7.064-4.687-11.383-4.687h-.449c-3.308 0-6.056-2.463-6.256-5.607-.111-1.749.542-3.454 1.792-4.678.192-.189.3-.446.3-.715s-.108-.526-.3-.715c-1.164-1.139-1.805-2.661-1.805-4.285s.641-3.146 1.805-4.286c.192-.188.3-.445.3-.714s-.108-.526-.3-.714c-1.164-1.14-1.805-2.662-1.805-4.286 0-1.781.786-3.459 2.156-4.605.333-.278.448-.74.285-1.143-.293-.722-.441-1.48-.441-2.252 0-3.309 2.691-6 6-6 .261 0 .54.023.876.072.315.045.632-.061.856-.287 1.138-1.151 2.653-1.785 4.268-1.785 1.624 0 3.146.641 4.286 1.805.376.384 1.053.384 1.429 0 1.139-1.164 2.661-1.805 4.285-1.805s3.146.641 4.286 1.805c.376.384 1.053.384 1.429 0 1.139-1.164 2.661-1.805 4.285-1.805s3.146.641 4.286 1.805c.376.384 1.053.384 1.429 0 1.139-1.164 2.661-1.805 4.285-1.805 1.615 0 3.13.634 4.268 1.786.224.226.538.331.856.286.336-.049.614-.072.876-.072 3.309 0 6 2.691 6 6 0 .772-.148 1.53-.441 2.252-.163.402-.048.864.285 1.143 1.37 1.146 2.156 2.824 2.156 4.605 0 1.624-.641 3.146-1.805 4.286-.192.188-.3.445-.3.714s.108.526.3.714c1.164 1.14 1.805 2.662 1.805 4.286s-.641 3.146-1.805 4.285c-.192.188-.3.446-.3.715s.108.526.301.715c1.25 1.224 1.903 2.929 1.792 4.678-.2 3.144-2.948 5.607-6.257 5.607h-8.731c-6.065 0-11 4.935-11 11v7h2v-7c0-4.963 4.038-9 9-9h8.731c4.361 0 7.985-3.286 8.252-7.48.127-2.007-.5-3.971-1.741-5.519 1.14-1.415 1.758-3.158 1.758-5.001 0-1.842-.618-3.585-1.757-5 1.139-1.415 1.757-3.158 1.757-5 0-2.139-.849-4.166-2.351-5.663z" fill="#b3404a"/></svg>