<svg id="Layer_3" enable-background="new 0 0 64 64" height="512" viewBox="0 0 64 64" width="512" xmlns="http://www.w3.org/2000/svg"><path d="m40.798 35.222 2.484-2.081c6.41-5.37 11.648-12.001 15.387-19.48l.02-.041c.204-.408.31-.857.31-1.313v-.37c.001-1.622-1.314-2.937-2.936-2.937-.687 0-1.352.241-1.88.681l-.214.179c-7.151 5.959-15.911 9.66-25.169 10.635l-4.8.505c-6.627 0-12 5.373-12 12s5.373 12 12 12c3.59 0 6.812-1.576 9.011-4.075 2.173-2.468 4.842-4.378 7.787-5.703z" fill="#c66b60"/><path d="m45.993 15.217c-5.313 2.833-11.145 4.641-17.193 5.278l-4.8.505c-6.627 0-12 5.373-12 12 0 1.247.191 2.449.543 3.579 1.766.274 3.589.421 5.457.421 15.371 0 27.844-9.733 27.993-21.783z" fill="#e47c6e"/><path d="m59 43h-7.684c-6.934 0-13.723 2.72-18.305 7.925-2.199 2.499-5.421 4.075-9.011 4.075-12.15 0-22-9.85-22-22s9.85-22 22-22v10c-6.627 0-12 5.373-12 12s5.373 12 12 12c3.59 0 6.812-1.576 9.011-4.075 4.581-5.205 11.37-7.925 18.305-7.925h7.684" fill="#fadfb2"/><ellipse cx="24" cy="16" fill="#f5cf88" rx="3" ry="5"/><ellipse cx="59" cy="38" fill="#f5cf88" rx="3" ry="5"/><path d="m43 21h-2c0 2.818-1.346 5.509-3.6 7.2l-3.238 2.428c-2.532-.41-5.097-.628-7.685-.628h-1.933c1.042-2.184 1.78-4.529 2.157-6.982l.287-1.866c.008-.05.012-.101.012-.152v-.316l-2 .211v.029l-.275 1.791c-.611 3.97-2.232 7.638-4.647 10.709-1.338-1.861-2.078-4.131-2.078-6.424h-2c0 2.794.923 5.564 2.6 7.8l.14.187c-1.432 1.518-3.08 2.851-4.915 3.951l-.179.107c.339.579.718 1.132 1.146 1.645l.062-.037c3.601-2.161 6.544-5.143 8.63-8.653h2.993c2.715 0 5.405.24 8.057.712l.066.088.085-.064c2.334.424 4.636 1.041 6.899 1.827l1.698-1.423c.009-.008.018-.016.027-.024l.022-.061c-2.131-.799-4.304-1.437-6.508-1.924l1.777-1.331c1.038-.779 1.917-1.731 2.612-2.8h3.788v-2h-2.772c.496-1.264.772-2.617.772-4z" fill="#bf5763"/><path d="m51.445 20.832 1.109-1.664-2.244-1.496c.445-1.206.69-2.49.69-3.814v-1.724c-.655.463-1.323.905-2 1.333v.39c0 2.404-.936 4.664-2.636 6.364l-.071.071 1.414 1.414.071-.071c.65-.65 1.197-1.374 1.658-2.143z" fill="#bf5763"/><path d="m24 45c.683 0 1.348-.074 2-.184v-1.674c0-2.404.936-4.664 2.636-6.364l.071-.071-1.414-1.414-.071.071c-.764.764-1.398 1.621-1.899 2.544l-1.615-1.615-1.414 1.414 2.192 2.192c-.319 1.038-.486 2.127-.486 3.243z" fill="#bf5763"/><g fill="#f5cf88"><path d="m13.102 28c.325-.707.715-1.375 1.165-2h-1.781c-1.335 0-2.591-.52-3.536-1.464l-.243-.243-1.414 1.414.243.243c1.322 1.322 3.08 2.05 4.95 2.05z"/><path d="m13.541 38.873c-.348-.619-.638-1.274-.874-1.954l-1.324 1.324c-1.133 1.133-2.64 1.757-4.242 1.757h-.101v2h.101c2.137 0 4.146-.832 5.657-2.343z"/><path d="m23 45.789v-.84c-.686-.057-1.352-.176-2-.343v1.182c0 2.346 1.166 4.523 3.117 5.824l.328.219 1.109-1.664-.328-.219c-1.393-.928-2.226-2.483-2.226-4.159z"/><path d="m45.757 42.343c-1.133-1.133-1.757-2.64-1.757-4.242v-.101h-2v.101c0 2.137.832 4.146 2.343 5.657l.151.151c.762-.206 1.534-.377 2.315-.513z"/></g></svg>