<svg id="Layer_3" enable-background="new 0 0 64 64" height="512" viewBox="0 0 64 64" width="512" xmlns="http://www.w3.org/2000/svg"><path d="m34 62v-27c0-4.971 4.029-9 9-9h4l-.155-.311c-.556-1.111-.845-2.336-.845-3.578v-.223c0-1.242.289-2.467.845-3.578l.155-.31h-4c-7.18 0-13 5.82-13 13v31" fill="#f5cf88"/><path d="m17 17.874v.126l.155.311c.556 1.111.845 2.336.845 3.578v.223c0 1.242-.289 2.467-.845 3.578l-.155.31v.126c.32-.082.655-.126 1-.126h2c3.314 0 6 2.686 6 6 0 5.523-4.477 10-10 10-7.732 0-14-6.268-14-14v-12c0-7.732 6.268-14 14-14 5.523 0 10 4.477 10 10 0 3.314-2.686 6-6 6h-2c-.345 0-.68-.044-1-.126z" fill="#976947"/><path d="m26 12c0 3.314-2.686 6-6 6h-2c-.345 0-.68-.044-1-.126v.126l.155.311c.556 1.111.845 2.336.845 3.578v.223c0 1.242-.289 2.467-.845 3.578l-.155.31v.126c.32-.082.655-.126 1-.126h2c3.314 0 6 2.686 6 6 0 1.72-.435 3.338-1.199 4.751-9.864-1.689-17.451-11.933-17.451-24.325 0-2.895.417-5.672 1.178-8.251 2.164-1.37 4.721-2.175 7.472-2.175 5.523 0 10 4.477 10 10z" fill="#c18e59"/><path d="m30 62v-27c0-4.971-4.029-9-9-9h-4l.155-.311c.556-1.111.845-2.336.845-3.578v-.223c0-1.242-.289-2.467-.845-3.578l-.155-.31h4c7.18 0 13 5.82 13 13v31" fill="#fadfb2"/><path d="m47 17.874v.126l-.155.311c-.556 1.111-.845 2.336-.845 3.578v.223c0 1.242.289 2.467.845 3.578l.155.31v.126c-.32-.082-.655-.126-1-.126h-2c-3.314 0-6 2.686-6 6 0 5.523 4.477 10 10 10 7.732 0 14-6.268 14-14v-12c0-7.732-6.268-14-14-14-5.523 0-10 4.477-10 10 0 3.314 2.686 6 6 6h2c.345 0 .68-.044 1-.126z" fill="#976947"/><path d="m38 12c0 3.314 2.686 6 6 6h2c.345 0 .68-.044 1-.126v.126l-.155.311c-.556 1.111-.845 2.336-.845 3.578v.223c0 1.242.289 2.467.845 3.578l.155.31v.126c-.32-.082-.655-.126-1-.126h-2c-3.314 0-6 2.686-6 6 0 1.72.435 3.338 1.199 4.751 9.863-1.689 17.451-11.933 17.451-24.324 0-2.895-.417-5.672-1.178-8.251-2.164-1.371-4.721-2.176-7.472-2.176-5.523 0-10 4.477-10 10z" fill="#c18e59"/><g fill="#fff"><path d="m7 16h-2c0-6.065 4.935-11 11-11v2c-4.962 0-9 4.037-9 9z"/><path d="m48 39v-2c4.962 0 9-4.037 9-9h2c0 6.065-4.935 11-11 11z"/></g></svg>